<svg width="102" height="102" viewBox="0 0 102 102" fill="none" xmlns="http://www.w3.org/2000/svg">
<path d="M48.3091 70.2763V101.78C49.7908 101.799 51.258 101.242 52.3802 100.122C53.2887 99.2108 53.6968 98.2948 54.2797 95.8424C54.8627 93.4094 55.3242 92.4497 56.3444 91.5531C58.346 89.7889 61.188 89.5902 63.3304 91.0684C63.6802 91.3108 64.6178 92.2607 65.4243 93.1864C67.6493 95.7551 68.6987 96.39 71.0548 96.2883C72.0605 96.2447 72.4831 96.0653 73.1341 95.76C74.8539 94.9603 76.0247 93.1719 76.3113 91.4998C76.4279 90.8019 76.4231 89.9198 75.9227 87.9084C75.262 85.2525 75.2037 84.666 75.5049 83.5319C75.9615 81.821 77.0741 80.4543 78.6092 79.7176C78.6578 79.6934 78.5606 79.7418 78.6092 79.7176C79.2359 79.4123 79.8092 79.136 80.6691 79.0972C81.801 79.0488 82.0876 79.1505 83.5985 79.7176C83.822 79.8 84.0746 79.8921 84.3564 79.9987C86.834 80.905 87.7279 81.0698 88.957 80.842C90.7885 80.5028 92.2265 79.4268 93.0524 77.7838C93.5237 76.8338 93.6548 76.165 93.6548 75.2345C93.6548 74.1973 93.5139 73.6254 93.1301 72.8402C92.8775 72.3313 92.0808 71.2796 91.182 70.2715C90.3319 69.3264 89.3748 68.0033 89.1562 67.5574C89.1902 67.6204 89.1222 67.4847 89.1562 67.5574C88.8647 66.9758 88.7044 66.651 88.7044 65.4055C88.7044 64.1502 89.0056 63.5492 89.3359 62.8949C89.3845 62.8028 89.2777 63.0112 89.3359 62.8949C90.2639 61.0096 91.8622 59.9433 94.1552 59.6767C97.0992 59.3375 97.6822 59.226 98.5469 58.8189C100.617 57.8495 101.841 55.7025 101.778 53.4827H69.6168C67.3481 63.113 58.6521 70.2763 48.3091 70.2763C48.3188 70.2763 48.2994 70.2763 48.3091 70.2763Z" fill="#4285F4"/>
<path d="M55.6255 48.4664C55.6255 52.4794 52.3609 55.7364 48.3384 55.7364C44.3158 55.7364 41.0512 52.4794 41.0512 48.4664C41.0512 44.4534 44.3158 41.1964 48.3384 41.1964C52.3609 41.1964 55.6255 44.4534 55.6255 48.4664Z" fill="#2B2B2B"/>
<path d="M69.1068 34.5323L61.4698 42.1513C60.0269 39.1657 57.5882 36.7472 54.5858 35.3272L62.3054 27.6259L58.9241 24.2478C57.972 23.3027 57.972 21.7711 58.9241 20.8212L64.0057 15.7516L55.402 7.16333C54.4498 6.21824 54.4401 4.66247 55.5332 3.887C56.4271 3.25209 57.389 2.72381 58.4189 2.30215C60.2018 1.57515 62.0625 1.21166 64.0057 1.21166C65.949 1.21166 67.7902 1.57515 69.5343 2.30215C71.2735 3.02915 72.833 4.07602 74.2078 5.45247L89.7344 20.9423C90.6866 21.8923 90.6866 23.4238 89.7344 24.3689L84.6528 29.4434H98.377L100.058 31.1203C101.01 32.0702 101.01 33.6018 100.058 34.5469L86.2511 48.3259C85.2989 49.2758 83.7637 49.2758 82.8164 48.3259L81.1306 46.6489V32.9572L76.049 38.0268C75.0968 38.9767 73.5617 38.9767 72.6143 38.0268L69.1068 34.5323Z" fill="#2B2B2B"/>
<path d="M42.1782 61.6445L28.4248 75.3653V81.2686C28.4248 81.9083 28.1722 82.5287 27.7156 82.9794L15.4488 95.2172C14.5015 96.1623 12.9614 96.1623 12.0141 95.2172L1.7246 84.952C0.777266 84.0069 0.777266 82.4754 1.7246 81.5254L13.9914 69.2876C14.448 68.8321 15.065 68.58 15.7111 68.58H21.6235L35.2942 54.9416C36.7614 57.8787 39.1953 60.2535 42.1782 61.6445Z" fill="#2B2B2B"/>
<path fill-rule="evenodd" clip-rule="evenodd" d="M48.3383 0C41.9596 0 35.6392 1.25528 29.7463 3.6883C24.9756 5.66088 20.5596 8.375 16.6585 11.724L12.2376 7.30874C10.8142 5.88867 8.50657 5.88867 7.08314 7.30874C5.65971 8.7288 5.65971 11.031 7.08314 12.451L11.504 16.8615C8.15193 20.7533 5.43138 25.1589 3.45412 29.9183C1.63719 34.2997 0.476096 38.9185 0 43.6198H34.5947C36.5962 37.9735 41.9936 33.9265 48.3383 33.9265V0Z" fill="#3DDC84"/>
<path fill-rule="evenodd" clip-rule="evenodd" d="M28.8428 36.4371C32.8701 36.4371 36.1299 33.1801 36.1299 29.1671C36.1299 25.1492 32.8701 21.8971 28.8428 21.8971C24.8202 21.8971 21.5556 25.1492 21.5556 29.1671C21.5556 33.1801 24.8202 36.4371 28.8428 36.4371Z" fill="white"/>
</svg>
